<svg xmlns="http://www.w3.org/2000/svg" viewBox="0 0 84.5 100"><defs><style>.cls-1{fill:#5054b0;fill-rule:evenodd;}</style></defs><title>calendar</title><g id="Capa_2" data-name="Capa 2"><g id="Capa_1-2" data-name="Capa 1"><path class="cls-1" d="M5.63,96.41H78.82V97H5.63Zm0-3.62H78.82v.6H5.63ZM46,73v9.64h9.62V73ZM29.18,73v9.64h9.64V73ZM12.41,73v9.64h9.64V73ZM62.77,58.56V68.2h9.64V58.56ZM46,58.56V68.2h9.62V58.56Zm-16.81,0V68.2h9.64V58.56Zm-16.78,0V68.2h9.64V58.56ZM62.77,44.09v9.64h9.64V44.09ZM46,44.09v9.64h9.62V44.09Zm-16.81,0v9.64h9.64V44.09ZM6.68,36.21H77.79a1,1,0,0,1,1,1V88.79a1,1,0,0,1-1,1H6.68a1,1,0,0,1-1-1V37.25A1,1,0,0,1,6.68,36.21Zm.05-27.9A6.75,6.75,0,0,0,0,15.07V93.25A6.75,6.75,0,0,0,6.73,100h71a6.78,6.78,0,0,0,6.77-6.75V15.07a6.78,6.78,0,0,0-6.77-6.75H74.57v9.45a3.63,3.63,0,0,1-3.62,3.64H68.23a3.65,3.65,0,0,1-3.64-3.64V8.32H20.23v9.45a3.63,3.63,0,0,1-3.62,3.64H13.86a3.63,3.63,0,0,1-3.62-3.64V8.32H6.73ZM69.36,0a2.61,2.61,0,0,0-2.61,2.61V16a2.59,2.59,0,0,0,2.61,2.58h.46A2.6,2.6,0,0,0,72.42,16V2.61A2.62,2.62,0,0,0,69.82,0ZM15,0a2.61,2.61,0,0,0-2.61,2.61V16A2.59,2.59,0,0,0,15,18.61h.48A2.59,2.59,0,0,0,18.06,16V2.61A2.6,2.6,0,0,0,15.48,0Z"/></g></g></svg>