<svg xmlns="http://www.w3.org/2000/svg" viewBox="0 0 369.59 54.43"><defs><style>.cls-1{fill:#39d8e3;}.cls-2{fill:#fff;}</style></defs><title>logo_sillacademica</title><g id="Capa_2" data-name="Capa 2"><g id="Layer_1" data-name="Layer 1"><polygon class="cls-1" points="110.81 26.2 110.96 42.53 112.18 42.68 112.34 27.57 124.85 30.78 125.15 46.49 126.53 46.49 126.68 30.63 136.75 27.27 136.9 40.24 138.12 40.24 138.58 4.84 125 2.25 125.15 21.93 110.81 26.2"/><polygon class="cls-1" points="119.2 33.37 119.05 50.46 117.83 50.46 117.68 34.59 104.1 38.1 103.79 54.43 102.42 54.43 102.11 37.95 92.04 34.44 91.89 49.7 90.52 49.39 90.06 6.98 104.4 10.49 104.25 28.95 119.2 33.37"/><path class="cls-2" d="M0,8.4H7.12V27.87H17.69v7.08H0Z"/><path class="cls-2" d="M23.44,15.48A7,7,0,0,1,30.52,8.4H37a7.12,7.12,0,0,1,7.12,7.12V34.95H37V29.73h-6.5v5.22H23.44ZM37,22.65V15.48h-6.5v7.17Z"/><path class="cls-2" d="M51,28.31H64.14V25H57.68a7.08,7.08,0,0,1-7.17-7V15.53A7.12,7.12,0,0,1,57.64,8.4H69.89V15H57.64v2.88h6.46A7.08,7.08,0,0,1,71.22,25v2.88a7,7,0,0,1-7.08,7.08H51Z"/><path class="cls-2" d="M77.41,8.4h7.12V34.95H77.41Z"/><path class="cls-2" d="M143.47,15.48a7,7,0,0,1,7.08-7.08H157a7.12,7.12,0,0,1,7.12,7.12V34.95H157V29.73h-6.5v5.22h-7.08ZM157,22.65V15.48h-6.5v7.17Z"/><path class="cls-2" d="M171.2,15.53a7.12,7.12,0,0,1,7.12-7.12H188.9v7.08H178.33V27.87H188.9v7.08H178.37a7.08,7.08,0,0,1-7.17-7Z"/><path class="cls-2" d="M195.75,15.48a7,7,0,0,1,7.08-7.08h6.46a7.12,7.12,0,0,1,7.12,7.12V34.95h-7.08V29.73h-6.5v5.22h-7.08Zm13.58,7.17V15.48h-6.5v7.17Z"/><path class="cls-2" d="M224.37,8.4h13.18a7.11,7.11,0,0,1,7.12,7.08V27.87a7.07,7.07,0,0,1-7.08,7.08H224.37ZM237.6,27.87V15.48h-6.15V27.87Z"/><path class="cls-2" d="M252,8.4h18v7.08H259.1V19h7.3v5.35h-7.3v3.54H270v7.08H252ZM260.25,0h7.25l-4.64,5.62h-5.44Z"/><path class="cls-2" d="M276.83,8.4H284l6,11.24L295.81,8.4h7.08V34.95h-7.08V21l-5.13,10h-1.59L284,21V34.95h-7.12Z"/><path class="cls-2" d="M310.41,8.4h7.12V34.95h-7.12Z"/><path class="cls-2" d="M324.38,15.53a7.12,7.12,0,0,1,7.12-7.12h10.57v7.08H331.51V27.87h10.57v7.08H331.55a7.08,7.08,0,0,1-7.17-7Z"/><path class="cls-2" d="M348.93,15.48A7,7,0,0,1,356,8.4h6.46a7.12,7.12,0,0,1,7.12,7.12V34.95h-7.08V29.73H356v5.22h-7.08Zm13.58,7.17V15.48H356v7.17Z"/></g></g></svg>