<svg xmlns="http://www.w3.org/2000/svg" viewBox="0 0 80 80"><defs><style>.cls-1{fill:#0dc143;fill-rule:evenodd;}</style></defs><title>whatsapp2</title><g id="Capa_2" data-name="Capa 2"><g id="Capa_1-2" data-name="Capa 1"><path class="cls-1" d="M23.63,17.44l7.28,12-3,3a2,2,0,0,0-.31,2.41c4.63,8,10.1,14.24,17.78,17.63a2,2,0,0,0,2.22-.41l3.22-3.22,11.75,7.34a11.1,11.1,0,0,1-4.94,5.69,12,12,0,0,1-8.12.75c-6.27-1.3-13.83-6.22-20-12.53s-10.94-14-12.16-20.22A11.73,11.73,0,0,1,18.13,22a10.1,10.1,0,0,1,5.5-4.53ZM40,0A40,40,0,0,0,7.06,62.69a2,2,0,0,1,.25,1.72L3.25,78l13.31-4.59a2,2,0,0,1,1.72.22A40,40,0,1,0,40,0Z"/></g></g></svg>